<?xml version="1.0" encoding="UTF-8"?>
<svg xmlns="http://www.w3.org/2000/svg" xmlns:xlink="http://www.w3.org/1999/xlink" version="1.1" id="Layer_1" x="0px" y="0px" width="360px" height="360px" viewBox="0 0 360 360" style="enable-background:new 0 0 360 360;" xml:space="preserve">
<style type="text/css">
	.st0{fill:#ED2C2A;} path:not(.st0){fill:#ffffff;} polygon:not(.st0){fill:#ffffff;}
</style>
<g>
	<path class="st0" d="M219.1,177.3l-146.9,5.5l145.7-1.8C217.8,179.4,218.1,178.5,219.1,177.3z"></path>
	<g>
		<g>
			<path class="st0" d="M185.5,172.1c0.2,1.1,0.7,2.3,1.1,3.3l5.3,0.1l10.8-29.4l-14.9,1.4c0,0.1,0,0.1,0,0.2     c-0.2,0.6-0.4,1.3-0.6,2.1l9.5-0.7l-8.7,22.7L185.5,172.1z"></path>
			<path d="M183.9,148C183.9,148,183.9,148,183.9,148l-45.3,4.6l44.9-2.5C183.6,149.3,183.7,148.6,183.9,148z"></path>
			<path d="M182.9,172.3l-64.3,4.8l65.4-1.7C183.6,174.4,183.2,173.4,182.9,172.3z"></path>
		</g>
		<path d="M188.4,145.6l3.1-0.7c0,0,0,0,0,0l0,0c0,0,0,0,0,0l20-4.8l17.6,4.8c0,0,0,0,0,0l3.7,1c0,0.1-4.1,10.9-7.5,18.3l0.6,0    c3.9-8.1,9.4-22.7,9.4-22.8l-4.1-1.1c0,0,0,0,0,0l-19.7-5.3l-22.4,5.3c0,0,0,0,0,0l0,0c0,0,0,0,0,0l-3.5,0.8    c-0.2,0.7-1.1,2.9-1.9,6.9c-0.8,4-1.7,9.8-1.8,17.7c-0.2,12.1,8.6,18.6,13.3,22.1l2.1,1.6l1.3-0.7l-1.7-1.3    c-4.2-3.1-12.1-8.9-11.9-19.8c0.2-10.5,1.7-16.8,2.6-19.9C188.1,146.6,188.3,145.9,188.4,145.6z"></path>
		<g>
			<path class="st0" d="M228.4,173.6c4.5,0,7.5,2.3,6.8,5.2c-0.1,0.3-0.2,0.6-0.4,0.9l4.7,0.1c0.1-0.3,0.2-0.7,0.3-1     c1.2-4.6-3.8-8.4-9.9-8.4c-5.5,0-9.1,2.9-11,6.9l0,0C220.4,175.2,224.6,173.6,228.4,173.6z"></path>
		</g>
		<path class="st0" d="M205.1,146.1c3.4-0.3,8.1-0.4,9.5-0.4c8.9,0.1,9.4,5.8,12.1,16.2c4.4,0.7,8.7,1,11.3,1.5    c9.5,1.9,9.3,9.6,9.4,12c-0.6-1.4-1.8-7-9.8-9c-2.2-0.6-17.4-2.5-32.1-2l3.2-9l13-0.3C221.7,150.3,221.1,145.9,205.1,146.1z"></path>
	</g>
	<g>
		<g>
			<path d="M24,217.1H13.7l6.6-31l-4.8-3.5l0.2-0.8h30c7.4,0,16.8,0.1,24.1,1c-0.1,3.5-0.3,6.8-1.1,10.3c-0.9,4.1-1.9,8.3-3.8,12.6     c-3.7,0.2-7.8,0.5-11.8,0.7l11.3,10.7H51.3l-17.3-16.2l0.2-1h5.4c6.1,0,11.4,0,16.7-0.3c0.6-1.9,1.2-3.8,1.6-5.7     c0.4-1.9,0.6-3.4,0.8-5.2c-4.8-0.2-9.2-0.2-14.5-0.2H30.1L24,217.1z"></path>
			<path d="M115,209.8l-1.5,7.1c-7.1,0.4-13.7,0.6-20.5,0.6c-7.3,0-14.8-0.2-21.9-0.6l5.6-26.5l-4.7-3.4l0.2-0.8     c7.4-0.3,19.9-0.6,28.7-0.6h0.2c6.3,0,12.4,0.2,18.7,0.6l-1.5,7.1c-5.3-0.5-11.9-0.6-17.4-0.6c-4.7,0-9.8,0.1-14.5,0.1l-1.3,6.1     h21.9l-1.1,5.3H84.1l-1.3,5.9c5.1,0.1,10.6,0.2,15.7,0.2C103.6,210.4,109.7,210.3,115,209.8z"></path>
			<path d="M170.2,187.3c1.1,4.9,1.1,9.4,0,14.3c-1,4.9-2.9,9.4-6.1,14.3c-7.7,1.2-15.2,1.7-22.4,1.7c-4.6,0-8.9-0.2-21.5-0.5     l5.6-26.6l-4.7-3.5l0.1-0.8c7.4-0.3,18.5-0.5,27.4-0.5C155.8,185.7,163.1,186.2,170.2,187.3z M155.5,210c1.5-2.8,2.6-5.5,3.2-8.4     c0.6-2.9,0.7-5.5,0.3-8.4c-3.8-0.4-7.2-0.5-12-0.5c-4.6,0-7.8,0.2-11.5,0.5L132,210c3.6,0.3,6.8,0.5,11.3,0.5     C148.1,210.5,151.5,210.4,155.5,210z"></path>
			<path d="M177.3,191.7l0.3-1.2l-4.6-3.5l0.1-0.8h15.7l-1.2,5.5c-1.2,5.7-2.5,12.2-3.4,17.9c3,0.5,6.3,0.6,9.4,0.6s6.5-0.1,9.7-0.6     c0.3-1.1,0.7-2.3,1-3.3h10.3c-0.9,3.4-1.8,6.6-3.1,10.3c-6.7,0.7-13.1,1-19.5,1c-6.5,0-12.7-0.2-19-1     C174,208.5,175.6,199.7,177.3,191.7z"></path>
			<path class="st0" d="M227.3,217.1H217l5.6-26.6l-4.6-3.5l0.1-0.8h15.7L227.3,217.1z"></path>
			<path d="M281.7,217.1h-10.3l-17-23.4c-1.2-0.1-2.5-0.1-3.8-0.1l-5,23.5h-10.3l5.6-26.6l-4.7-3.5l0.1-0.8h6.8     c6,0,11.7,0.1,18.8,0.5l12.1,17.2l3.8-17.8h10.3L281.7,217.1z"></path>
			<path d="M333.6,209.8l-1.5,7.1c-7.1,0.4-13.7,0.6-20.5,0.6c-7.3,0-14.8-0.2-21.9-0.6l5.6-26.5l-4.7-3.4l0.2-0.8     c7.4-0.3,19.9-0.6,28.7-0.6h0.2c6.3,0,12.4,0.2,18.7,0.6l-1.5,7.1c-5.3-0.5-11.9-0.6-17.4-0.6c-4.7,0-9.8,0.1-14.5,0.1l-1.3,6.1     h21.9l-1.1,5.3h-21.9l-1.3,5.9c5.1,0.1,10.6,0.2,15.7,0.2C322.2,210.4,328.3,210.3,333.6,209.8z"></path>
		</g>
		<g>
			<g>
				<path d="M342.8,186.7h-0.9v2.5h-0.9v-2.5h-0.9v-0.7h2.6V186.7z M343.9,186.9v2.4h-0.8v-3.1h1.3l0.6,1.8l0.6-1.8h1.3v3.1h-0.9      v-2.4l-0.8,2.4h-0.6L343.9,186.9z"></path>
			</g>
		</g>
	</g>
	<polygon class="st0" points="13,221.6 330.8,221.3 330.5,225.1  "></polygon>
</g>
</svg>
